<svg width="110" height="146" viewBox="0 0 110 146" fill="none" xmlns="http://www.w3.org/2000/svg">
<path d="M0 101.882V0H110V101.882L55 146L0 101.882Z" fill="#FF0000"/>
<path d="M29.5723 33.9492V37.5234H28.2539V41H24.2891V32.7285C24.2891 31.1725 24.7676 29.8867 25.7246 28.8711C26.6882 27.849 27.8991 27.3379 29.3574 27.3379C30.9655 27.3379 32.3099 28.0312 33.3906 29.418L30.1387 31.791C29.9564 31.2832 29.6341 31.0293 29.1719 31.0293C28.5599 31.0293 28.2539 31.4525 28.2539 32.2988V33.9492H29.5723ZM38.1562 27.6699V41H34.1914V27.6699H38.1562ZM46.6328 31.498V41H42.668V31.498H39.6309V27.6699H49.6602V31.498H46.6328ZM50.8516 41V32.3477C50.8516 30.8307 51.304 29.6165 52.209 28.7051C53.1204 27.7936 54.3314 27.3379 55.8418 27.3379C57.3457 27.3379 58.4948 27.7806 59.2891 28.666C60.0898 29.5514 60.4902 30.8242 60.4902 32.4844V41H56.5254V32.4844C56.5254 31.6706 56.2357 31.2637 55.6562 31.2637C55.0964 31.2637 54.8164 31.6706 54.8164 32.4844V41H50.8516ZM70.0117 32.8555V35.8242H67.4238C67.0723 35.8242 66.8216 35.8763 66.6719 35.9805C66.5286 36.0846 66.457 36.2604 66.457 36.5078C66.457 36.7878 66.5319 36.9733 66.6816 37.0645C66.8314 37.1491 67.1374 37.1914 67.5996 37.1914H70.2656V41H67.1504C65.6855 41 64.5658 40.6517 63.791 39.9551C63.0163 39.252 62.6289 38.2396 62.6289 36.918V31.6934C62.6289 30.4173 62.9935 29.4277 63.7227 28.7246C64.4583 28.0215 65.4902 27.6699 66.8184 27.6699H70.2656V31.498H67.7363C67.0527 31.498 66.7109 31.7194 66.7109 32.1621C66.7109 32.4225 66.7923 32.6048 66.9551 32.709C67.1178 32.8066 67.4076 32.8555 67.8242 32.8555H70.0117ZM78.8105 27.6113V31.4102C78.5241 31.3125 78.3027 31.2637 78.1465 31.2637C77.847 31.2637 77.5898 31.3743 77.375 31.5957C77.1602 31.8171 77.0527 32.084 77.0527 32.3965C77.0527 32.6634 77.1699 33.002 77.4043 33.4121L77.707 33.9395C78.2539 34.89 78.5273 35.8079 78.5273 36.6934C78.5273 37.9889 78.0651 39.0859 77.1406 39.9844C76.2227 40.8828 75.0996 41.332 73.7715 41.332C73.1335 41.332 72.502 41.1855 71.877 40.8926V37.0352C72.2546 37.276 72.5898 37.3965 72.8828 37.3965C73.2279 37.3965 73.5143 37.2988 73.7422 37.1035C73.9766 36.9017 74.0938 36.651 74.0938 36.3516C74.0938 36.1562 73.9082 35.7298 73.5371 35.0723C72.9447 34.0306 72.6484 32.9889 72.6484 31.9473C72.6484 30.6908 73.0944 29.61 73.9863 28.7051C74.8848 27.7936 75.9557 27.3379 77.1992 27.3379C77.7461 27.3379 78.2832 27.429 78.8105 27.6113ZM87.0918 27.6113V31.4102C86.8053 31.3125 86.584 31.2637 86.4277 31.2637C86.1283 31.2637 85.8711 31.3743 85.6562 31.5957C85.4414 31.8171 85.334 32.084 85.334 32.3965C85.334 32.6634 85.4512 33.002 85.6855 33.4121L85.9883 33.9395C86.5352 34.89 86.8086 35.8079 86.8086 36.6934C86.8086 37.9889 86.3464 39.0859 85.4219 39.9844C84.5039 40.8828 83.3809 41.332 82.0527 41.332C81.4147 41.332 80.7832 41.1855 80.1582 40.8926V37.0352C80.5358 37.276 80.8711 37.3965 81.1641 37.3965C81.5091 37.3965 81.7956 37.2988 82.0234 37.1035C82.2578 36.9017 82.375 36.651 82.375 36.3516C82.375 36.1562 82.1895 35.7298 81.8184 35.0723C81.2259 34.0306 80.9297 32.9889 80.9297 31.9473C80.9297 30.6908 81.3757 29.61 82.2676 28.7051C83.166 27.7936 84.237 27.3379 85.4805 27.3379C86.0273 27.3379 86.5645 27.429 87.0918 27.6113ZM43.5078 55.9492V59.5234H42.1895V63H38.2246V54.7285C38.2246 53.1725 38.7031 51.8867 39.6602 50.8711C40.6237 49.849 41.8346 49.3379 43.293 49.3379C44.901 49.3379 46.2454 50.0312 47.3262 51.418L44.0742 53.791C43.8919 53.2832 43.5697 53.0293 43.1074 53.0293C42.4954 53.0293 42.1895 53.4525 42.1895 54.2988V55.9492H43.5078ZM54.4453 49.3379C56.3333 49.3379 57.9512 50.0247 59.2988 51.3984C60.653 52.7721 61.3301 54.416 61.3301 56.3301C61.3301 58.2767 60.6497 59.9303 59.2891 61.291C57.9284 62.6517 56.2747 63.332 54.3281 63.332C52.3945 63.332 50.7441 62.6484 49.377 61.2812C48.0098 59.9141 47.3262 58.2637 47.3262 56.3301C47.3262 54.377 48.013 52.7233 49.3867 51.3691C50.7669 50.015 52.4531 49.3379 54.4453 49.3379ZM54.3281 53.2637C53.5143 53.2637 52.821 53.5632 52.248 54.1621C51.6751 54.7611 51.3887 55.4837 51.3887 56.3301C51.3887 57.1764 51.6751 57.8991 52.248 58.498C52.8275 59.097 53.5208 59.3965 54.3281 59.3965C55.1484 59.3965 55.8418 59.1003 56.4082 58.5078C56.9811 57.9089 57.2676 57.1829 57.2676 56.3301C57.2676 55.4772 56.9811 54.7546 56.4082 54.1621C55.8418 53.5632 55.1484 53.2637 54.3281 53.2637ZM67.1699 53.2539V63H63.2051V49.6699H68.293C69.8424 49.6699 71.0436 50.054 71.8965 50.8223C72.847 51.6816 73.3223 52.7721 73.3223 54.0938C73.3223 55.4414 72.7331 56.5775 71.5547 57.502L73.8398 63H69.6797L67.7559 58.7031V55.2754H68.0684C68.9017 55.2754 69.3184 54.9173 69.3184 54.2012C69.3184 53.5697 68.8366 53.2539 67.873 53.2539H67.1699ZM19.8066 76.8555V79.8242H17.2188C16.8672 79.8242 16.6165 79.8763 16.4668 79.9805C16.3236 80.0846 16.252 80.2604 16.252 80.5078C16.252 80.7878 16.3268 80.9733 16.4766 81.0645C16.6263 81.1491 16.9323 81.1914 17.3945 81.1914H20.0605V85H16.9453C15.4805 85 14.3607 84.6517 13.5859 83.9551C12.8112 83.252 12.4238 82.2396 12.4238 80.918V75.6934C12.4238 74.4173 12.7884 73.4277 13.5176 72.7246C14.2533 72.0215 15.2852 71.6699 16.6133 71.6699H20.0605V75.498H17.5312C16.8477 75.498 16.5059 75.7194 16.5059 76.1621C16.5059 76.4225 16.5872 76.6048 16.75 76.709C16.9128 76.8066 17.2025 76.8555 17.6191 76.8555H19.8066ZM31.9258 71.6699L26.1152 85.7617L20.3438 71.6699H24.9336L26.1543 75.8301L27.502 71.6699H31.9258ZM39.9043 76.8555V79.8242H37.3164C36.9648 79.8242 36.7142 79.8763 36.5645 79.9805C36.4212 80.0846 36.3496 80.2604 36.3496 80.5078C36.3496 80.7878 36.4245 80.9733 36.5742 81.0645C36.724 81.1491 37.0299 81.1914 37.4922 81.1914H40.1582V85H37.043C35.5781 85 34.4583 84.6517 33.6836 83.9551C32.9089 83.252 32.5215 82.2396 32.5215 80.918V75.6934C32.5215 74.4173 32.8861 73.4277 33.6152 72.7246C34.3509 72.0215 35.3828 71.6699 36.7109 71.6699H40.1582V75.498H37.6289C36.9453 75.498 36.6035 75.7194 36.6035 76.1621C36.6035 76.4225 36.6849 76.6048 36.8477 76.709C37.0104 76.8066 37.3001 76.8555 37.7168 76.8555H39.9043ZM46.4082 75.2539V85H42.4434V71.6699H47.5312C49.0807 71.6699 50.2819 72.054 51.1348 72.8223C52.0853 73.6816 52.5605 74.7721 52.5605 76.0938C52.5605 77.4414 51.9714 78.5775 50.793 79.502L53.0781 85H48.918L46.9941 80.7031V77.2754H47.3066C48.14 77.2754 48.5566 76.9173 48.5566 76.2012C48.5566 75.5697 48.0749 75.2539 47.1113 75.2539H46.4082ZM63.8105 71.6699L60.041 77.5977V85H56.0762V77.5977L52.2773 71.6699H56.3008L58.0195 74.4141L59.8652 71.6699H63.8105ZM70.793 71.3379C72.681 71.3379 74.2988 72.0247 75.6465 73.3984C77.0007 74.7721 77.6777 76.416 77.6777 78.3301C77.6777 80.2767 76.9974 81.9303 75.6367 83.291C74.276 84.6517 72.6224 85.332 70.6758 85.332C68.7422 85.332 67.0918 84.6484 65.7246 83.2812C64.3574 81.9141 63.6738 80.2637 63.6738 78.3301C63.6738 76.377 64.3607 74.7233 65.7344 73.3691C67.1146 72.015 68.8008 71.3379 70.793 71.3379ZM70.6758 75.2637C69.862 75.2637 69.1686 75.5632 68.5957 76.1621C68.0228 76.7611 67.7363 77.4837 67.7363 78.3301C67.7363 79.1764 68.0228 79.8991 68.5957 80.498C69.1751 81.097 69.8685 81.3965 70.6758 81.3965C71.4961 81.3965 72.1895 81.1003 72.7559 80.5078C73.3288 79.9089 73.6152 79.1829 73.6152 78.3301C73.6152 77.4772 73.3288 76.7546 72.7559 76.1621C72.1895 75.5632 71.4961 75.2637 70.6758 75.2637ZM79.2793 85V76.3477C79.2793 74.8307 79.7318 73.6165 80.6367 72.7051C81.5482 71.7936 82.7591 71.3379 84.2695 71.3379C85.7734 71.3379 86.9225 71.7806 87.7168 72.666C88.5176 73.5514 88.918 74.8242 88.918 76.4844V85H84.9531V76.4844C84.9531 75.6706 84.6634 75.2637 84.084 75.2637C83.5241 75.2637 83.2441 75.6706 83.2441 76.4844V85H79.2793ZM98.4395 76.8555V79.8242H95.8516C95.5 79.8242 95.2493 79.8763 95.0996 79.9805C94.9564 80.0846 94.8848 80.2604 94.8848 80.5078C94.8848 80.7878 94.9596 80.9733 95.1094 81.0645C95.2591 81.1491 95.5651 81.1914 96.0273 81.1914H98.6934V85H95.5781C94.1133 85 92.9935 84.6517 92.2188 83.9551C91.444 83.252 91.0566 82.2396 91.0566 80.918V75.6934C91.0566 74.4173 91.4212 73.4277 92.1504 72.7246C92.8861 72.0215 93.918 71.6699 95.2461 71.6699H98.6934V75.498H96.1641C95.4805 75.498 95.1387 75.7194 95.1387 76.1621C95.1387 76.4225 95.2201 76.6048 95.3828 76.709C95.5456 76.8066 95.8353 76.8555 96.252 76.8555H98.4395Z" fill="white"/>
</svg>
